<?xml version="1.0" encoding="UTF-8" standalone="no"?>
<svg
   width="500"
   height="500"
   viewBox="0 0 19.999131 15.182999"
   version="1.1"
   id="svg1"
   xmlns="http://www.w3.org/2000/svg"
   xmlns:svg="http://www.w3.org/2000/svg">
  <defs
     id="defs1" />
  <path
     fill="#ffffff"
     d="M 17.8876,2.9260001 A 5.134,5.134 0 0 0 14.9946,0.50800008 9.144,9.144 0 0 0 12.7196,8.0108642e-8 9.963,9.963 0 0 0 12.2116,1.0380001 a 15.039,15.039 0 0 0 -4.5600001,0 A 11.372,11.372 0 0 0 7.1325999,8.0108642e-8 C 6.3805999,0.08200008 5.6395999,0.24900008 4.9245999,0.49700008 a 5.123,5.123 0 0 0 -2.904,2.44000002 16.176,16.176 0 0 0 -1.90999997,9.7169999 16.562,16.562 0 0 0 4.97999997,2.528 4.339,4.339 0 0 0 1.104,-1.777 c -0.54,-0.202 -1.06,-0.45 -1.557,-0.74 -0.089,-0.122 0.254,-0.32 0.364,-0.354 a 11.826,11.826 0 0 0 10.0370001,0 c 0.1,0 0.453,0.232 0.364,0.354 -0.441,0.342 -1.424,0.585 -1.59,0.828 a 7.4,7.4 0 0 0 1.105,1.69 16.628,16.628 0 0 0 4.99,-2.53 16.232,16.232 0 0 0 -2.02,-9.7269999 M 6.6685999,10.291 a 1.943,1.943 0 0 1 -1.92,-1.9549999 1.943,1.943 0 0 1 1.92,-1.91 1.942,1.942 0 0 1 1.933,1.965 1.943,1.943 0 0 1 -1.933,1.8999999 m 6.6250001,0 a 1.943,1.943 0 0 1 -1.932,-1.9439999 1.9325748,1.9325748 0 1 1 3.865,0.034 A 1.932,1.932 0 0 1 13.2936,10.28 Z"
     id="path1" />
</svg>
