<?xml version="1.0" encoding="UTF-8" standalone="no"?>
<!-- Uploaded to: SVG Repo, www.svgrepo.com, Generator: SVG Repo Mixer Tools -->

<svg
   fill="#ffffff"
   width="666.59998"
   height="662.59998"
   viewBox="0 0 19.997999 19.877999"
   version="1.1"
   id="svg1"
   sodipodi:docname="facebook-circle.svg"
   xmlns:inkscape="http://www.inkscape.org/namespaces/inkscape"
   xmlns:sodipodi="http://sodipodi.sourceforge.net/DTD/sodipodi-0.dtd"
   xmlns="http://www.w3.org/2000/svg"
   xmlns:svg="http://www.w3.org/2000/svg">
  <defs
     id="defs1" />
  <sodipodi:namedview
     id="namedview1"
     pagecolor="#ffffff"
     bordercolor="#000000"
     borderopacity="0.25"
     inkscape:showpageshadow="2"
     inkscape:pageopacity="0.0"
     inkscape:pagecheckerboard="0"
     inkscape:deskcolor="#d1d1d1" />
  <path
     d="M 9.9990001,1.449585e-7 C 4.4770001,1.449585e-7 1.4495849e-7,4.4770001 1.4495849e-7,9.9990001 1.4495849e-7,14.989 3.6560001,19.125 8.4370001,19.878 V 12.89 h -2.54 V 9.9990001 h 2.54 v -2.203 c 0,-2.508 1.493,-3.891 3.7759999,-3.891 1.094,0 2.24,0.195 2.24,0.195 v 2.459 h -1.264 c -1.24,0 -1.628,0.772 -1.628,1.563 v 1.875 h 2.771 L 13.889,12.888 h -2.328 v 6.988 C 16.342,19.127 19.998,14.99 19.998,9.9990001 19.998,4.4770001 15.521,1.449585e-7 9.9990001,1.449585e-7 Z"
     id="path1" />
</svg>
